<mxfile>
    <diagram id="dYts7vBvIg4TQCnoWOex" name="Page-1">
        <mxGraphModel dx="1335" dy="997" grid="1" gridSize="10" guides="1" tooltips="1" connect="1" arrows="1" fold="1" page="1" pageScale="1" pageWidth="827" pageHeight="1169" background="#F1FAEE" math="0" shadow="0">
            <root>
                <mxCell id="0"/>
                <mxCell id="1" parent="0"/>
                <mxCell id="lHhB7YwZy8eBTK6Nw1PC-9" value="Máquina Local SEINFRA" style="verticalAlign=top;align=center;spacingTop=8;spacingLeft=2;spacingRight=12;shape=cube;size=10;direction=south;fontStyle=4;html=1;fillColor=#A8DADC;strokeColor=#457B9D;fontColor=#1D3557;" parent="1" vertex="1">
                    <mxGeometry x="120" y="280" width="570" height="420" as="geometry"/>
                </mxCell>
                <mxCell id="lHhB7YwZy8eBTK6Nw1PC-4" value="&amp;lt;&amp;lt;Servidor Seinfra&amp;gt;&amp;gt;&lt;br&gt;CADTI" style="verticalAlign=top;align=center;spacingTop=8;spacingLeft=2;spacingRight=12;shape=cube;size=10;direction=south;fontStyle=4;html=1;fillColor=#A8DADC;strokeColor=#457B9D;fontColor=#1D3557;" parent="1" vertex="1">
                    <mxGeometry x="200" y="50" width="420" height="140" as="geometry"/>
                </mxCell>
                <mxCell id="lHhB7YwZy8eBTK6Nw1PC-28" value="" style="edgeStyle=orthogonalEdgeStyle;rounded=0;orthogonalLoop=1;jettySize=auto;html=1;fontSize=9;strokeColor=#457B9D;fontColor=#1D3557;labelBackgroundColor=#F1FAEE;" parent="1" source="lHhB7YwZy8eBTK6Nw1PC-6" target="lHhB7YwZy8eBTK6Nw1PC-26" edge="1">
                    <mxGeometry relative="1" as="geometry"/>
                </mxCell>
                <mxCell id="lHhB7YwZy8eBTK6Nw1PC-6" value="&lt;font size=&quot;1&quot;&gt;&amp;lt;&amp;lt;Controller&amp;gt;&amp;gt;&lt;br&gt;&lt;/font&gt;&lt;b&gt;Controller&lt;/b&gt;" style="html=1;dropTarget=0;fillColor=#A8DADC;strokeColor=#457B9D;fontColor=#1D3557;" parent="1" vertex="1">
                    <mxGeometry x="361" y="340" width="106" height="50" as="geometry"/>
                </mxCell>
                <mxCell id="lHhB7YwZy8eBTK6Nw1PC-7" value="" style="shape=module;jettyWidth=8;jettyHeight=4;fillColor=#A8DADC;strokeColor=#457B9D;fontColor=#1D3557;" parent="lHhB7YwZy8eBTK6Nw1PC-6" vertex="1">
                    <mxGeometry x="1" width="20" height="20" relative="1" as="geometry">
                        <mxPoint x="-27" y="7" as="offset"/>
                    </mxGeometry>
                </mxCell>
                <mxCell id="lHhB7YwZy8eBTK6Nw1PC-10" value="&lt;&lt;File System&gt;&gt;&#10;&#10;Unidade D:" style="shape=module;align=left;spacingLeft=20;align=center;verticalAlign=top;fontSize=9;fontStyle=1;fillColor=#A8DADC;strokeColor=#457B9D;fontColor=#1D3557;" parent="1" vertex="1">
                    <mxGeometry x="364" y="610" width="100" height="50" as="geometry"/>
                </mxCell>
                <mxCell id="lHhB7YwZy8eBTK6Nw1PC-15" value="" style="endArrow=none;html=1;entryX=0.5;entryY=1;entryDx=0;entryDy=0;strokeColor=#457B9D;fontColor=#1D3557;labelBackgroundColor=#F1FAEE;" parent="1" source="lHhB7YwZy8eBTK6Nw1PC-10" target="lHhB7YwZy8eBTK6Nw1PC-6" edge="1">
                    <mxGeometry width="50" height="50" relative="1" as="geometry">
                        <mxPoint x="491" y="450" as="sourcePoint"/>
                        <mxPoint x="541" y="400" as="targetPoint"/>
                    </mxGeometry>
                </mxCell>
                <mxCell id="lHhB7YwZy8eBTK6Nw1PC-16" value="" style="endArrow=none;html=1;fontSize=9;strokeColor=#457B9D;fontColor=#1D3557;labelBackgroundColor=#F1FAEE;" parent="1" source="lHhB7YwZy8eBTK6Nw1PC-9" target="lHhB7YwZy8eBTK6Nw1PC-4" edge="1">
                    <mxGeometry width="50" height="50" relative="1" as="geometry">
                        <mxPoint x="480" y="430" as="sourcePoint"/>
                        <mxPoint x="530" y="380" as="targetPoint"/>
                    </mxGeometry>
                </mxCell>
                <UserObject label="Websocket" placeholders="1" name="Variable" id="lHhB7YwZy8eBTK6Nw1PC-18">
                    <mxCell style="text;html=1;strokeColor=none;fillColor=none;align=center;verticalAlign=middle;whiteSpace=wrap;overflow=hidden;fontSize=9;fontColor=#1D3557;" parent="1" vertex="1">
                        <mxGeometry x="400" y="210" width="80" height="20" as="geometry"/>
                    </mxCell>
                </UserObject>
                <mxCell id="lHhB7YwZy8eBTK6Nw1PC-19" value="&lt;&lt;Database&gt;&gt;&#10;&#10;PostgreSql" style="shape=module;align=left;spacingLeft=20;align=center;verticalAlign=top;fontSize=9;fillColor=#A8DADC;strokeColor=#457B9D;fontColor=#1D3557;" parent="1" vertex="1">
                    <mxGeometry x="467" y="110" width="100" height="50" as="geometry"/>
                </mxCell>
                <mxCell id="lHhB7YwZy8eBTK6Nw1PC-21" value="&#10;CadTI API" style="shape=module;align=left;spacingLeft=20;align=center;verticalAlign=top;fontSize=9;fillColor=#A8DADC;strokeColor=#457B9D;fontColor=#1D3557;" parent="1" vertex="1">
                    <mxGeometry x="240" y="110" width="100" height="50" as="geometry"/>
                </mxCell>
                <mxCell id="lHhB7YwZy8eBTK6Nw1PC-22" value="" style="endArrow=none;html=1;fontSize=9;exitX=1;exitY=0.5;exitDx=0;exitDy=0;strokeColor=#457B9D;fontColor=#1D3557;labelBackgroundColor=#F1FAEE;" parent="1" source="lHhB7YwZy8eBTK6Nw1PC-21" target="lHhB7YwZy8eBTK6Nw1PC-19" edge="1">
                    <mxGeometry width="50" height="50" relative="1" as="geometry">
                        <mxPoint x="450" y="450" as="sourcePoint"/>
                        <mxPoint x="500" y="400" as="targetPoint"/>
                    </mxGeometry>
                </mxCell>
                <mxCell id="lHhB7YwZy8eBTK6Nw1PC-24" value="" style="edgeStyle=orthogonalEdgeStyle;rounded=0;orthogonalLoop=1;jettySize=auto;html=1;fontSize=9;entryX=0.5;entryY=1;entryDx=0;entryDy=0;strokeColor=#457B9D;fontColor=#1D3557;labelBackgroundColor=#F1FAEE;" parent="1" source="lHhB7YwZy8eBTK6Nw1PC-23" target="lHhB7YwZy8eBTK6Nw1PC-21" edge="1">
                    <mxGeometry relative="1" as="geometry"/>
                </mxCell>
                <mxCell id="lHhB7YwZy8eBTK6Nw1PC-23" value="" style="shape=providedRequiredInterface;html=1;verticalLabelPosition=bottom;fontSize=9;rotation=90;fillColor=#A8DADC;strokeColor=#457B9D;fontColor=#1D3557;" parent="1" vertex="1">
                    <mxGeometry x="280" y="210" width="20" height="20" as="geometry"/>
                </mxCell>
                <mxCell id="lHhB7YwZy8eBTK6Nw1PC-25" value="Use" style="endArrow=open;endSize=12;dashed=1;html=1;fontSize=9;exitX=0;exitY=0.5;exitDx=0;exitDy=0;entryX=1;entryY=0.5;entryDx=0;entryDy=0;entryPerimeter=0;edgeStyle=orthogonalEdgeStyle;strokeColor=#457B9D;fontColor=#1D3557;labelBackgroundColor=#F1FAEE;" parent="1" source="lHhB7YwZy8eBTK6Nw1PC-6" target="lHhB7YwZy8eBTK6Nw1PC-23" edge="1">
                    <mxGeometry width="160" relative="1" as="geometry">
                        <mxPoint x="390" y="400" as="sourcePoint"/>
                        <mxPoint x="550" y="400" as="targetPoint"/>
                    </mxGeometry>
                </mxCell>
                <mxCell id="lHhB7YwZy8eBTK6Nw1PC-26" value="&lt;font style=&quot;font-size: 9px&quot;&gt;«Backup»&lt;br&gt;&lt;b&gt;BackupService&lt;/b&gt;&lt;/font&gt;" style="html=1;dropTarget=0;fillColor=#A8DADC;strokeColor=#457B9D;fontColor=#1D3557;" parent="1" vertex="1">
                    <mxGeometry x="361" y="470" width="106" height="50" as="geometry"/>
                </mxCell>
                <mxCell id="lHhB7YwZy8eBTK6Nw1PC-27" value="" style="shape=module;jettyWidth=8;jettyHeight=4;fillColor=#A8DADC;strokeColor=#457B9D;fontColor=#1D3557;" parent="lHhB7YwZy8eBTK6Nw1PC-26" vertex="1">
                    <mxGeometry x="1" width="20" height="20" relative="1" as="geometry">
                        <mxPoint x="-27" y="7" as="offset"/>
                    </mxGeometry>
                </mxCell>
            </root>
        </mxGraphModel>
    </diagram>
</mxfile>